<?xml version="1.0" encoding="UTF-8"?>
<svg version="1.1" xmlns="http://www.w3.org/2000/svg" width="1536" height="315">
<path d="M0 0 C506.88 0 1013.76 0 1536 0 C1536 103.95 1536 207.9 1536 315 C1029.12 315 522.24 315 0 315 C0 211.05 0 107.1 0 0 Z " fill="#FEFEFE" transform="translate(0,0)"/>
<path d="M0 0 C2.48414713 1.95813761 4.88615993 3.98446795 7.27734375 6.0546875 C8.025 6.65796875 8.77265625 7.26125 9.54296875 7.8828125 C29.13269061 24.18474887 39.57693278 48.37640712 43.27734375 73.0546875 C43.44989182 74.07369644 43.62243988 75.09270538 43.80021667 76.14259338 C44.37722345 80.87362824 44.4406495 85.50808786 44.4543457 90.26928711 C44.4609169 91.27183029 44.4674881 92.27437347 44.47425842 93.30729675 C44.49388386 96.60720913 44.505627 99.90707634 44.515625 103.20703125 C44.51970053 104.33801302 44.52377605 105.46899479 44.52797508 106.63424873 C44.54878511 112.61513203 44.5631114 118.5959927 44.57250977 124.5769043 C44.58359259 130.74495589 44.61802896 136.91264859 44.65768147 143.08057308 C44.68384016 147.83415898 44.69220073 152.58765896 44.69579124 157.3413105 C44.70065528 159.6150411 44.71226398 161.8887679 44.73082924 164.1624279 C44.75521491 167.345473 44.75425691 170.52758316 44.74731445 173.71069336 C44.76652954 175.10976929 44.76652954 175.10976929 44.78613281 176.53710938 C44.7293268 183.70311205 43.09389233 189.15990146 38.02734375 194.3671875 C32.04695203 198.03697333 26.42859569 199.50655558 19.39257812 199.39526367 C18.65013855 199.39570175 17.90769897 199.39613983 17.14276123 199.39659119 C14.71859296 199.39452155 12.29513934 199.37127861 9.87109375 199.34765625 C8.17859271 199.34205377 6.48608677 199.33778675 4.7935791 199.33479309 C0.36135176 199.32339562 -4.0705758 199.29397296 -8.50268555 199.26068115 C-13.03430121 199.22986975 -17.5659658 199.2162642 -22.09765625 199.20117188 C-30.97278721 199.16909785 -39.8476967 199.11796391 -48.72265625 199.0546875 C-48.83894506 189.83986715 -48.92757022 180.62530271 -48.98171711 171.40990639 C-49.00771632 167.12993924 -49.04293474 162.85047727 -49.09985352 158.57080078 C-49.15452233 154.43400544 -49.18414941 150.29769336 -49.19704247 146.16056442 C-49.20622031 144.58899716 -49.22414164 143.01745379 -49.25130653 141.44609451 C-49.39897457 132.54320451 -49.38198529 124.47346303 -43.72265625 117.0546875 C-38.68141476 112.43957645 -34.89324951 109.95247222 -28.015625 109.87890625 C-26.87158203 109.85505859 -25.72753906 109.83121094 -24.54882812 109.80664062 C-22.13494203 109.76388258 -19.7208256 109.73251815 -17.30664062 109.71289062 C-16.15873047 109.68517578 -15.01082031 109.65746094 -13.828125 109.62890625 C-12.77778076 109.61432373 -11.72743652 109.59974121 -10.64526367 109.5847168 C-7.03134846 108.92931542 -5.32977713 107.59543565 -2.72265625 105.0546875 C-1.97883674 102.8541825 -1.97883674 102.8541825 -2.16015625 100.5546875 C-2.15822266 99.42546875 -2.15822266 99.42546875 -2.15625 98.2734375 C-2.93863943 95.20862926 -4.29623762 94.05151915 -6.72265625 92.0546875 C-9.27027396 91.48194775 -9.27027396 91.48194775 -12.046875 91.5859375 C-13.07619141 91.57175781 -14.10550781 91.55757813 -15.16601562 91.54296875 C-17.30924505 91.5507107 -19.45247422 91.5585219 -21.59570312 91.56640625 C-29.57120176 91.45722083 -35.83510498 90.31919216 -42.0625 85.08984375 C-42.58972656 84.43886719 -43.11695313 83.78789062 -43.66015625 83.1171875 C-44.20542969 82.46878906 -44.75070312 81.82039063 -45.3125 81.15234375 C-48.14591576 76.9375397 -48.96299117 73.31724235 -48.9609375 68.2734375 C-48.97705078 67.18417969 -48.99316406 66.09492188 -49.00976562 64.97265625 C-49.02669229 62.69406733 -49.03190103 60.41536124 -49.02539062 58.13671875 C-49.07512102 51.54798463 -49.07512102 51.54798463 -52.015625 45.8125 C-55.15227077 43.7678389 -55.15227077 43.7678389 -58.72265625 43.4296875 C-59.36203125 43.41679688 -60.00140625 43.40390625 -60.66015625 43.390625 C-64.17971158 44.52381516 -65.54414133 46.06807388 -67.72265625 49.0546875 C-68.37886199 52.63788657 -68.33119184 56.17029857 -68.28515625 59.8046875 C-68.20260495 69.17743467 -69.72452713 75.5146634 -74.91015625 83.3671875 C-80.37779824 88.59182318 -87.57261431 91.11714215 -95.09375 91.23046875 C-95.91552734 91.25431641 -96.73730469 91.27816406 -97.58398438 91.30273438 C-99.29727484 91.34559911 -101.0108946 91.37690652 -102.72460938 91.39648438 C-106.77769068 91.53296245 -109.20929544 91.75899692 -112.78125 93.81640625 C-114.93769343 96.30260763 -115.40324405 97.30835987 -115.34765625 100.5546875 C-115.36054688 101.3075 -115.3734375 102.0603125 -115.38671875 102.8359375 C-114.32035314 106.3988532 -112.99563154 107.26434204 -109.72265625 109.0546875 C-104.74185879 109.72724889 -99.72935404 109.5613553 -94.71289062 109.54296875 C-87.05401054 109.64795028 -81.70172017 110.77137346 -75.734375 115.6953125 C-75.29738281 116.22640625 -74.86039062 116.7575 -74.41015625 117.3046875 C-73.96027344 117.82546875 -73.51039063 118.34625 -73.046875 118.8828125 C-67.92706658 127.27990242 -68.32883065 135.63715765 -68.4296875 145.1484375 C-68.43529098 146.70641672 -68.43955752 148.26440127 -68.44255066 149.8223877 C-68.45394037 153.89952492 -68.48335599 157.97633551 -68.5166626 162.05334473 C-68.54749104 166.22301822 -68.56108315 170.3927451 -68.57617188 174.5625 C-68.60823216 182.72671148 -68.65935622 190.89065872 -68.72265625 199.0546875 C-78.60669174 199.14762347 -88.49062221 199.21857182 -98.37500668 199.26193619 C-102.96541281 199.28275555 -107.55551862 199.31096906 -112.14575195 199.35644531 C-116.58077992 199.40010583 -121.01552014 199.42386706 -125.45074654 199.43419647 C-127.13754362 199.44155176 -128.82432606 199.45591457 -130.51099968 199.47760773 C-149.60511934 199.71328094 -149.60511934 199.71328094 -156.5811615 193.362854 C-162.74183566 187.03959153 -163.02074394 179.70237852 -162.99731445 171.3059082 C-163.00242538 170.35190125 -163.00753632 169.39789429 -163.01280212 168.41497803 C-163.02666431 165.27007711 -163.02574202 162.12539656 -163.0234375 158.98046875 C-163.02732994 156.77394023 -163.03166573 154.56741245 -163.03642273 152.36088562 C-163.04388044 147.73169533 -163.04359956 143.10258127 -163.03833008 138.47338867 C-163.03257543 132.59577658 -163.04937113 126.71848374 -163.07267475 120.84092426 C-163.08755795 116.27727998 -163.08826352 111.71370966 -163.08516502 107.15004539 C-163.08567225 104.98673057 -163.09079505 102.82341093 -163.10097694 100.66012001 C-163.2375742 67.54270442 -156.78926041 39.52377703 -134.72265625 14.0546875 C-134.0678125 13.29800781 -133.41296875 12.54132813 -132.73828125 11.76171875 C-99.24424064 -24.09408114 -39.42084288 -28.16582461 0 0 Z " fill="#9AD7EB" transform="translate(362.72265625,72.9453125)"/>
<path d="M0 0 C6.27 0 12.54 0 19 0 C20.70936308 3.12444021 22.4175359 6.24952204 24.125 9.375 C24.92067383 10.82990845 24.92067383 10.82990845 25.73242188 12.31420898 C28.77427129 17.88607513 31.79116271 23.47024938 34.7734375 29.07421875 C35.39460449 30.23840332 36.01577148 31.40258789 36.65576172 32.60205078 C37.86738905 34.87549609 39.07487808 37.15115266 40.27783203 39.42919922 C40.83583496 40.47479004 41.39383789 41.52038086 41.96875 42.59765625 C42.45794922 43.52070557 42.94714844 44.44375488 43.45117188 45.39477539 C45.08751251 48.14720145 46.94644762 50.54742268 49 53 C49.57947388 51.9162207 49.57947388 51.9162207 50.1706543 50.81054688 C57.21808543 37.63342185 64.27359537 24.46063523 71.375 11.3125 C71.92760498 10.28640625 72.48020996 9.2603125 73.04956055 8.203125 C73.55656494 7.26597656 74.06356934 6.32882813 74.5859375 5.36328125 C75.0298584 4.54126221 75.4737793 3.71924316 75.93115234 2.87231445 C77 1 77 1 78 0 C84.27 0 90.54 0 97 0 C97 34.32 97 68.64 97 104 C90.73 104 84.46 104 78 104 C77.67 81.89 77.34 59.78 77 37 C72.38 45.58 67.76 54.16 63 63 C57.1875 73.5 57.1875 73.5 54.79296875 77.78125 C53.83282214 79.50491188 52.88237087 81.23525826 52 83 C49.36 83 46.72 83 44 83 C35.53671695 68.07170907 27.28054807 53.03023851 19 38 C18.67 59.78 18.34 81.56 18 104 C12.06 104 6.12 104 0 104 C0 69.68 0 35.36 0 0 Z " fill="#0A819D" transform="translate(446,122)"/>
<path d="M0 0 C5.94 0 11.88 0 18 0 C18 34.32 18 68.64 18 104 C12.39 104 6.78 104 1 104 C0.505 100.535 0.505 100.535 0 97 C-0.50789062 97.48210937 -1.01578125 97.96421875 -1.5390625 98.4609375 C-2.22742188 99.09257812 -2.91578125 99.72421875 -3.625 100.375 C-4.29789063 101.00148438 -4.97078125 101.62796875 -5.6640625 102.2734375 C-12.0099981 106.96391164 -19.4500789 106.68635646 -27 106 C-36.0324402 104.06354879 -43.66008604 98.13110903 -48.66796875 90.4375 C-54.41676117 79.37823951 -56.09229528 66.7082656 -52.875 54.5625 C-49.26820305 44.56412334 -42.2924015 36.59163878 -32.9375 31.5625 C-25.75978983 28.70631775 -17.16721511 28.58481793 -9.8828125 31.05859375 C-6.4726399 32.72414182 -3.68885108 34.31114892 -1 37 C-0.67 24.79 -0.34 12.58 0 0 Z " fill="#0A819D" transform="translate(686,122)"/>
<path d="M0 0 C8.7606649 5.72547391 13.37039014 14.20343744 16.66796875 23.98046875 C18.57359197 35.57114172 17.00655355 46.4979387 10.3125 56.25 C3.82485507 64.16492682 -4.63093591 70.05330141 -14.97265625 71.22314453 C-27.60293765 72.15064448 -38.06425078 70.26683104 -48 61.91015625 C-51.1804057 58.87262033 -53.72402297 55.76331764 -56 52 C-56.41378906 51.319375 -56.82757812 50.63875 -57.25390625 49.9375 C-61.5892747 41.23655147 -61.6025976 29.31227218 -59.234375 19.984375 C-58.31024531 17.82807239 -57.29208306 15.95377265 -56 14 C-55.401875 12.96875 -54.80375 11.9375 -54.1875 10.875 C-41.58149366 -5.69289404 -18.3276208 -11.3191831 0 0 Z " fill="#0B819E" transform="translate(910,157)"/>
<path d="M0 0 C8.85835738 7.80335794 8.85835738 7.80335794 9.90234375 13.67578125 C-0.47123256 21.34320722 -0.47123256 21.34320722 -6.09765625 22.67578125 C-7.08765625 21.34546875 -7.08765625 21.34546875 -8.09765625 19.98828125 C-12.42431864 14.80364049 -18.49723894 11.09940067 -25.09765625 9.67578125 C-34.92493141 8.81589467 -43.39796956 10.45062939 -51.23828125 16.66015625 C-60.61465893 26.82446483 -60.73511296 39.23888174 -60.27685547 52.17724609 C-59.91676038 57.19797238 -58.54049002 61.31248068 -56.09765625 65.67578125 C-55.70835937 66.40796875 -55.3190625 67.14015625 -54.91796875 67.89453125 C-50.94934794 74.18796544 -45.09490983 77.48464127 -38.09765625 79.67578125 C-28.27568888 81.00169585 -19.17941837 80.0957336 -11.0390625 74.1796875 C-8.22860725 71.83666764 -5.67555564 69.26907108 -3.09765625 66.67578125 C-2.57816406 67.206875 -2.05867187 67.73796875 -1.5234375 68.28515625 C2.13041384 71.98628478 5.73112296 75.54736566 9.90234375 78.67578125 C5.08982521 89.0953379 -5.18601906 93.60356475 -15.37109375 97.55859375 C-29.46928199 101.51500231 -44.7132158 98.89996061 -57.28515625 91.98828125 C-70.64765534 83.43027621 -78.14605366 70.89598445 -81.5625 55.59375 C-81.86744273 53.60953362 -82.011062 51.6818814 -82.09765625 49.67578125 C-82.14921875 48.7115625 -82.20078125 47.74734375 -82.25390625 46.75390625 C-82.6924216 31.47895495 -78.45466656 16.62874044 -67.81640625 5.2265625 C-49.21297525 -11.55880593 -20.84112181 -15.48083328 0 0 Z " fill="#0C819E" transform="translate(834.09765625,129.32421875)"/>
<path d="M0 0 C1.12148438 0.01353516 1.12148438 0.01353516 2.265625 0.02734375 C11.82783103 0.3256448 18.67913835 3.42337284 25.64453125 10.03125 C33.87778 19.72853724 35.6875 30.0723144 35.6875 42.4375 C18.8575 42.4375 2.0275 42.4375 -15.3125 42.4375 C-12.00452528 52.88659967 -12.00452528 52.88659967 -4 59.3125 C3.1612274 61.49728124 9.11691891 60.89854683 15.6875 57.4375 C17.85510306 55.88789441 19.7246555 54.25313116 21.6875 52.4375 C24.9701932 53.92826434 27.61827441 55.82370321 30.4375 58.0625 C31.23671875 58.69414062 32.0359375 59.32578125 32.859375 59.9765625 C33.46265625 60.45867187 34.0659375 60.94078125 34.6875 61.4375 C29.26454262 68.57297023 22.20435681 74.41896696 13.140625 76.1875 C3.08040309 77.21274554 -6.22880755 77.45099949 -15.3125 72.4375 C-16.34375 71.880625 -17.375 71.32375 -18.4375 70.75 C-27.23027565 63.67755002 -32.50426707 55.63849843 -34.3125 44.4375 C-35.26673249 31.90733241 -33.51976359 21.17875961 -25.234375 11.40625 C-18.00896502 4.00461051 -10.39344855 -0.1503573 0 0 Z " fill="#0B819D" transform="translate(589.3125,151.5625)"/>
<path d="M0 0 C8.5913975 5.06916252 14.18965154 12.15042517 17.375 21.5625 C18.375 25.5625 18.375 25.5625 18.375 39.5625 C1.875 39.5625 -14.625 39.5625 -31.625 39.5625 C-27.81093303 50.88778505 -27.81093303 50.88778505 -19.25 56.875 C-12.55956689 58.62725629 -6.67604892 57.74988379 -0.625 54.5625 C1.54260306 53.01289441 3.4121555 51.37813116 5.375 49.5625 C10.77989519 51.08262677 14.35992628 54.83635218 18.375 58.5625 C12.31151528 66.54076937 5.20009144 71.27759501 -4.625 73.5625 C-17.18422216 74.7333794 -27.79576307 73.48458189 -38 65.375 C-45.96184999 57.74489376 -49.77166331 48.29310735 -50.00537109 37.37304688 C-49.9754765 25.55652817 -47.45081628 15.7915661 -39.625 6.5625 C-28.86043164 -3.45666037 -13.53971452 -6.20929583 0 0 Z " fill="#0B819D" transform="translate(1145.625,154.4375)"/>
<path d="M0 0 C6.38157294 3.70703457 11.01346798 9.83031573 12.96347046 16.91339111 C13.86063902 21.77390544 13.61861434 26.73547218 13.57421875 31.66015625 C13.57138885 32.84883804 13.56855896 34.03751984 13.56564331 35.26222229 C13.55448831 39.04210668 13.52939191 42.82175026 13.50390625 46.6015625 C13.49387042 49.17122053 13.48474562 51.74088228 13.4765625 54.31054688 C13.45456422 60.59514424 13.42006626 66.8795626 13.37890625 73.1640625 C7.43890625 73.1640625 1.49890625 73.1640625 -4.62109375 73.1640625 C-4.63567627 71.7414209 -4.65025879 70.3187793 -4.6652832 68.85302734 C-4.72335191 63.563712 -4.80058501 58.27481853 -4.88354492 52.98583984 C-4.91675381 50.69880024 -4.94479826 48.41167947 -4.9675293 46.12451172 C-5.00114885 42.83265672 -5.05346999 39.54154278 -5.109375 36.25 C-5.11576492 35.23102631 -5.12215485 34.21205261 -5.1287384 33.16220093 C-5.26143598 26.72284089 -5.86137774 21.92377851 -10.62109375 17.1640625 C-14.87478533 15.58862117 -19.46565286 15.30188614 -23.7109375 17 C-29.1054572 19.99360684 -31.50728812 23.3919496 -33.62109375 29.1640625 C-34.18059023 32.63899415 -34.2257804 36.05527725 -34.23046875 39.5703125 C-34.247005 40.5356189 -34.26354126 41.50092529 -34.28057861 42.4954834 C-34.32881839 45.55174271 -34.35037623 48.60750531 -34.37109375 51.6640625 C-34.3992735 53.7474205 -34.42920371 55.8307556 -34.4609375 57.9140625 C-34.53457099 62.9973549 -34.58429222 68.08037544 -34.62109375 73.1640625 C-40.56109375 73.1640625 -46.50109375 73.1640625 -52.62109375 73.1640625 C-52.62109375 49.4040625 -52.62109375 25.6440625 -52.62109375 1.1640625 C-46.68109375 1.1640625 -40.74109375 1.1640625 -34.62109375 1.1640625 C-34.29109375 4.1340625 -33.96109375 7.1040625 -33.62109375 10.1640625 C-33.12609375 9.4421875 -32.63109375 8.7203125 -32.12109375 7.9765625 C-24.15063841 -0.99019976 -11.3892408 -3.63233611 0 0 Z " fill="#0A819D" transform="translate(1070.62109375,152.8359375)"/>
<path d="M0 0 C6.17462814 3.80701473 9.36862938 10.25380567 11.02206421 17.1083374 C11.85332318 22.0189511 11.678665 26.97129363 11.6328125 31.9375 C11.6299826 33.1025708 11.62715271 34.2676416 11.62423706 35.46801758 C11.61309807 39.16628562 11.58800479 42.86430592 11.5625 46.5625 C11.5524621 49.07942357 11.54333766 51.59635096 11.53515625 54.11328125 C11.51317926 60.26311538 11.47869257 66.41276577 11.4375 72.5625 C5.4975 72.5625 -0.4425 72.5625 -6.5625 72.5625 C-6.57708252 71.17538818 -6.59166504 69.78827637 -6.60668945 68.35913086 C-6.66482298 63.19464822 -6.74205543 58.03059471 -6.82495117 52.86645508 C-6.85812968 50.63475529 -6.88618348 48.40297302 -6.90893555 46.17114258 C-6.94261126 42.95618666 -6.99493485 39.7419818 -7.05078125 36.52734375 C-7.05717117 35.53540512 -7.0635611 34.54346649 -7.07014465 33.52146912 C-7.19079454 27.78923371 -7.79699937 23.6218557 -10.5625 18.5625 C-13.86538276 15.63708956 -17.02628775 14.96038208 -21.44140625 15.15234375 C-26.88409682 16.20479773 -30.50354443 19.0576684 -33.640625 23.515625 C-36.26209114 28.22954743 -36.16502151 32.80071554 -36.171875 38.08984375 C-36.18841125 39.07876114 -36.20494751 40.06767853 -36.22198486 41.08656311 C-36.27031071 44.22443957 -36.29180191 47.3618319 -36.3125 50.5 C-36.34067251 52.63609186 -36.37060173 54.77216132 -36.40234375 56.90820312 C-36.47606581 62.12626221 -36.52573476 67.34405496 -36.5625 72.5625 C-42.5025 72.5625 -48.4425 72.5625 -54.5625 72.5625 C-54.5625 48.8025 -54.5625 25.0425 -54.5625 0.5625 C-48.6225 0.5625 -42.6825 0.5625 -36.5625 0.5625 C-36.2325 3.5325 -35.9025 6.5025 -35.5625 9.5625 C-34.593125 8.49 -33.62375 7.4175 -32.625 6.3125 C-24.0878697 -2.05490604 -11.33519403 -4.73026366 0 0 Z " fill="#0B819D" transform="translate(991.5625,153.4375)"/>
<path d="M0 0 C0.75539063 -0.01160156 1.51078125 -0.02320313 2.2890625 -0.03515625 C13.83180593 0.02434243 22.81597544 5.83706456 30.75 13.82421875 C32 15.375 32 15.375 32 17.375 C29.69404616 19.00446228 27.39803293 20.5185897 25 22 C24.33226562 22.42023438 23.66453125 22.84046875 22.9765625 23.2734375 C21.32168546 24.31364592 19.66133712 25.34514051 18 26.375 C16.82824219 25.19164062 16.82824219 25.19164062 15.6328125 23.984375 C10.66227289 19.05808352 7.24468762 17.23116235 0.1875 17.0625 C-5.06392752 17.12584653 -8.10913098 17.58140271 -12 21.375 C-17.15279815 28.71231775 -17.8576566 35.60895177 -17 44.375 C-15.42062739 49.85852266 -12.96882385 54.11873441 -8.3125 57.5 C-3.62692768 59.97955899 0.82074993 60.26967236 6 59.375 C10.72151297 57.80116234 14.4622 55.81614999 17 51.375 C20.69876091 52.74787342 23.9514476 54.43855453 27.3125 56.5 C28.19550781 57.03882813 29.07851562 57.57765625 29.98828125 58.1328125 C30.65214844 58.54273438 31.31601563 58.95265625 32 59.375 C28.78536348 66.91508985 21.40102403 71.69480262 14.04296875 74.68359375 C4.73792642 77.83271898 -6.88892215 77.91133756 -15.828125 73.63671875 C-26.90208361 67.20346581 -32.75075332 59.6859428 -36.5859375 47.515625 C-38.94963193 35.29577077 -36.43575968 24.41326861 -29.8125 14.0625 C-22.50508308 4.2255926 -12.00986806 -0.1844519 0 0 Z " fill="#0B819D" transform="translate(1209,151.625)"/>
<path d="M0 0 C5.61 0 11.22 0 17 0 C17 7.92 17 15.84 17 24 C22.61 24 28.22 24 34 24 C34 28.62 34 33.24 34 38 C28.72 38 23.44 38 18 38 C18.06879247 43.64212236 18.15671735 49.2834976 18.26245117 54.92504883 C18.2957225 56.84456098 18.32374754 58.76417148 18.34643555 60.68383789 C18.37994121 63.44199572 18.43225403 66.19925043 18.48828125 68.95703125 C18.49467117 69.81649857 18.5010611 70.67596588 18.50764465 71.56147766 C18.52743881 72.36208115 18.54723297 73.16268463 18.56762695 73.98754883 C18.57873001 74.6914827 18.58983307 75.39541656 18.60127258 76.12068176 C19.11876513 78.55977458 20.0566284 79.48172999 22 81 C24.19525279 81.18393276 24.19525279 81.18393276 26.5 80.75 C27.2734375 80.64171875 28.046875 80.5334375 28.84375 80.421875 C31.16984214 80.01460006 31.16984214 80.01460006 34 79 C34 84.28 34 89.56 34 95 C16.14006768 99.87089063 16.14006768 99.87089063 7.7578125 95.203125 C3.62749492 92.37615208 1.42692048 88.69965634 0 84 C-0.27295759 80.48155254 -0.23244986 76.97634427 -0.1953125 73.44921875 C-0.1924826 72.43527542 -0.18965271 71.42133209 -0.18673706 70.37666321 C-0.17556625 67.14682073 -0.15046711 63.91725829 -0.125 60.6875 C-0.1149662 58.49414464 -0.10584105 56.30078492 -0.09765625 54.10742188 C-0.07563701 48.7381738 -0.04112825 43.36913434 0 38 C-3.96 38 -7.92 38 -12 38 C-12 33.38 -12 28.76 -12 24 C-8.04 24 -4.08 24 0 24 C0 16.08 0 8.16 0 0 Z " fill="#0C819D" transform="translate(1257,130)"/>
<path d="M0 0 C5.01678911 3.70286816 8.71865619 7.93734875 10.625 13.9375 C11.31870038 20.97360384 11.68356663 28.83629951 7.625 34.9375 C3.70256588 39.12960147 0.11857496 42.59322202 -5.79296875 43.17578125 C-12.15198292 43.34619207 -17.34233066 43.12590891 -22.375 38.9375 C-27.99216813 32.99557054 -29.13338271 26.64613163 -28.9519043 18.70898438 C-28.54548819 11.7759063 -26.97995234 7.41220472 -21.875 2.5625 C-14.98485974 -1.91609117 -7.92509595 -2.49493761 0 0 Z " fill="#FCFEFE" transform="translate(897.375,169.0625)"/>
<path d="M0 0 C5.43697617 4.90653947 8.15394399 9.26019441 8.8984375 16.64453125 C8.98867927 24.68507316 8.80022745 31.82613038 3.03125 37.93359375 C-1.92390567 42.220775 -5.30713292 42.66471711 -11.6796875 42.58984375 C-16.98852149 42.05595251 -19.59979562 39.16924311 -23.1875 35.5 C-27.91677685 28.80019113 -28.40230637 21.29500323 -27.4375 13.3125 C-25.82450427 7.89583526 -23.41364679 3.56735474 -18.8125 0.1875 C-12.73139604 -3.0488451 -6.11276907 -3.00081391 0 0 Z " fill="#FCFDFE" transform="translate(678.4375,169.6875)"/>
<path d="M0 0 C5.94 0 11.88 0 18 0 C18 23.76 18 47.52 18 72 C12.06 72 6.12 72 0 72 C0 48.24 0 24.48 0 0 Z " fill="#097F9C" transform="translate(723,154)"/>
<path d="M0 0 C4.8764629 2.34792658 7.40337614 5.28760854 10 10 C10.33 11.65 10.66 13.3 11 15 C0.44 15 -10.12 15 -21 15 C-17.60550459 4.81651376 -17.60550459 4.81651376 -12 1 C-8.285392 -0.857304 -4.05406882 -0.44282906 0 0 Z " fill="#FCFDFE" transform="translate(595,167)"/>
<path d="M0 0 C5.44715851 2.46663782 8.52352446 6.66352395 11 12 C11 12.99 11 13.98 11 15 C0.44 15 -10.12 15 -21 15 C-17.60550459 4.81651376 -17.60550459 4.81651376 -12 1 C-8.28055101 -0.8597245 -4.05935482 -0.4315801 0 0 Z " fill="#FBFDFD" transform="translate(1135,167)"/>
<path d="M0 0 C2.93423195 1.79646854 4.47205355 2.9441071 6 6 C6.4973766 10.973766 6.54511419 13.06308498 4 17.4375 C0.7593794 20.2055301 -0.92486891 20.95307689 -5.07421875 21.171875 C-8.93369829 20.82741841 -11.08074749 18.85585578 -13.8125 16.3125 C-15.58043093 12.86968714 -15.7281585 9.72645822 -15 6 C-11.4649774 -0.59870885 -7.21103354 -1.42089331 0 0 Z " fill="#0C809C" transform="translate(736,121)"/>
<path d="M0 0 C5.94 0 11.88 0 18 0 C18.76183594 1.4025 19.52367187 2.805 20.30859375 4.25 C21.35154377 6.16667686 22.39451393 8.08334276 23.4375 10 C23.97721436 10.99427002 24.51692871 11.98854004 25.07299805 13.01293945 C27.6119736 17.67741204 30.16720968 22.32627109 32.8359375 26.91796875 C33.25689697 27.64564453 33.67785645 28.37332031 34.11157227 29.12304688 C34.89770885 30.47445387 35.69217904 31.82105561 36.49584961 33.16210938 C37.40707981 34.73277415 38.2142921 36.36293207 39 38 C38.67 38.99 38.34 39.98 38 41 C37.61255615 40.27522461 37.2251123 39.55044922 36.82592773 38.80371094 C35.35342736 36.05177475 33.8788906 33.30094141 32.40307617 30.55078125 C31.46446629 28.80029162 30.52809814 27.04860055 29.59179688 25.296875 C28.35807837 22.99915588 27.11245923 20.70778824 25.85522461 18.42285156 C24.61912348 16.1422702 23.4293023 13.83598822 22.28735352 11.50683594 C19.58922812 5.7935003 19.58922812 5.7935003 14.85766602 1.96972656 C12.50065289 1.59390811 10.44101769 1.58287194 8.0625 1.75 C7.28326172 1.75644531 6.50402344 1.76289062 5.70117188 1.76953125 C3.79937226 1.79286621 1.89869744 1.88894008 0 2 C0 1.34 0 0.68 0 0 Z " fill="#0B7796" transform="translate(447,122)"/>
<path d="M0 0 C0.66 0.33 1.32 0.66 2 1 C-2.29 5.62 -6.58 10.24 -11 15 C-11 10.66825307 -8.34177417 8.77646347 -5.5 5.8125 C-4.97535156 5.25369141 -4.45070312 4.69488281 -3.91015625 4.11914062 C-2.61338387 2.73984636 -1.30753741 1.36909356 0 0 Z " fill="#8ED2E9" transform="translate(234,81)"/>
<path d="M0 0 C0.33 0.66 0.66 1.32 1 2 C0.0390625 4.53125 0.0390625 4.53125 -1.375 7.5 C-1.83648438 8.4796875 -2.29796875 9.459375 -2.7734375 10.46875 C-3.50730438 11.98322687 -4.24737781 13.49475562 -5 15 C-5.66 15 -6.32 15 -7 15 C-5.45454854 9.52067211 -2.84456788 4.88570819 0 0 Z " fill="#087090" transform="translate(520,129)"/>
<path d="M0 0 C1 3 1 3 -0.1875 6 C-1.91646162 8.86172959 -3.19955455 10.26179248 -6 12 C-6.66 11.67 -7.32 11.34 -8 11 C-7.38511719 10.31164062 -7.38511719 10.31164062 -6.7578125 9.609375 C-6.21898437 8.99578125 -5.68015625 8.3821875 -5.125 7.75 C-4.59132813 7.14671875 -4.05765625 6.5434375 -3.5078125 5.921875 C-2.0202513 4.02581254 -0.99677564 2.18709995 0 0 Z " fill="#087393" transform="translate(907,198)"/>
<path d="M0 0 C3.72114571 2.31537955 6.61229661 4.28579473 9 8 C7.02 7.34 5.04 6.68 3 6 C3 5.01 3 4.02 3 3 C2.01 2.67 1.02 2.34 0 2 C0 1.34 0 0.68 0 0 Z " fill="#177C9A" transform="translate(607,156)"/>
</svg>
